<?xml version="1.0" encoding="iso-8859-1"?>
<!-- Uploaded to: SVG Repo, www.svgrepo.com, Generator: SVG Repo Mixer Tools -->
<svg fill="#000000" height="800px" width="800px" version="1.1" id="Layer_1" xmlns="http://www.w3.org/2000/svg" xmlns:xlink="http://www.w3.org/1999/xlink" 
	 viewBox="0 0 512 512" xml:space="preserve">
<g>
	<g>
		<path d="M255.999,84.516c-39.799,0-72.178,32.378-72.178,72.178c0,39.799,32.378,72.177,72.178,72.177
			s72.178-32.378,72.178-72.177C328.176,116.894,295.798,84.516,255.999,84.516z M256,195.479
			c-21.387,0-38.786-17.399-38.786-38.786c0-21.386,17.399-38.786,38.786-38.786s38.786,17.399,38.786,38.786
			C294.786,178.08,277.387,195.479,256,195.479z"/>
	</g>
</g>
<g>
	<g>
		<path d="M363.105,396.949c-12.544-2.196-35.891-6.285-59.88-0.966c-11.487,2.548-21.7,6.978-30.531,13.167v-97.713
			c14.721-3.465,27.946-11.457,37.886-23.026c1.749,0.128,3.5,0.193,5.248,0.193c19.253,0,37.355-7.497,50.97-21.112
			c15.049-15.049,22.498-35.453,20.931-56.229c15.802-13.583,24.964-33.28,24.964-54.57c0-21.289-9.161-40.988-24.964-54.57
			c1.567-20.776-5.881-41.179-20.931-56.231c-15.051-15.047-35.461-22.495-56.229-20.93C296.988,9.161,277.29,0,256,0
			c-21.289,0-40.989,9.163-54.571,24.964c-20.777-1.573-41.179,5.881-56.228,20.93c-15.048,15.049-22.497,35.454-20.931,56.23
			c-15.801,13.582-24.963,33.281-24.963,54.57s9.161,40.989,24.963,54.57c-1.567,20.776,5.882,41.18,20.931,56.23
			c13.615,13.614,31.715,21.111,50.969,21.111c1.749,0,3.5-0.065,5.249-0.193c9.941,11.57,23.165,19.561,37.886,23.026v30.93
			c-8.831-6.188-19.044-10.62-30.531-13.167c-23.988-5.319-47.336-1.231-59.878,0.966c-1.323,0.232-2.509,0.441-3.539,0.605
			l-25.697,4.142l14.48,21.63c0.58,0.866,1.235,1.875,1.968,3.002c6.94,10.677,19.857,30.551,40.097,44.483
			c14.595,10.046,30.34,15.086,46.69,15.086c5.41,0,10.889-0.562,16.412-1.667V512h33.391v-27.769
			c5.522,1.105,11,1.667,16.412,1.667c16.346,0,32.096-5.041,46.688-15.085c20.241-13.932,33.158-33.805,40.097-44.483
			c0.732-1.128,1.388-2.137,1.969-3.004l14.481-21.63l-25.698-4.142C365.614,397.39,364.429,397.182,363.105,396.949z
			 M195.135,376.525c-6.68-4.599-12.502-10.441-17.399-16.269c22.436-1.154,43.483,3.545,55.912,24.332
			C219.891,387.631,207.388,384.959,195.135,376.525z M223.076,261.635l-6.322-10.206l-11.688,2.745
			c-2.934,0.689-5.928,1.038-8.897,1.038c-10.333,0-20.049-4.025-27.358-11.332c-9.536-9.536-13.384-23.091-10.293-36.256
			l2.745-11.688l-10.207-6.322c-11.495-7.12-18.359-19.428-18.359-32.922c0-13.493,6.863-25.802,18.36-32.922l10.207-6.322
			l-2.745-11.688c-3.091-13.165,0.757-26.719,10.293-36.256c9.537-9.538,23.093-13.383,36.254-10.293l11.688,2.745l6.322-10.207
			c7.121-11.494,19.428-18.359,32.923-18.359c13.493,0,25.801,6.863,32.922,18.359l6.322,10.207l11.688-2.745
			c13.167-3.092,26.72,0.757,36.255,10.292c9.538,9.538,13.385,23.091,10.293,36.255l-2.746,11.689l10.208,6.322
			c11.497,7.12,18.36,19.428,18.36,32.922c0,13.495-6.863,25.802-18.36,32.922l-10.208,6.322l2.746,11.688
			c3.092,13.165-0.756,26.719-10.292,36.255c-7.307,7.307-17.024,11.332-27.359,11.332c-2.967,0-5.961-0.349-8.9-1.04l-11.687-2.741
			l-6.321,10.204c-7.12,11.496-19.428,18.359-32.922,18.359C242.507,279.993,230.199,273.133,223.076,261.635z M278.312,451.275
			c7.148-12.142,17.621-19.472,32.144-22.692c7.918-1.758,16.157-2.037,23.765-1.647
			C319.776,444.14,302.007,456.353,278.312,451.275z"/>
	</g>
</g>
</svg>